<?xml version="1.0" standalone="no"?>
<!DOCTYPE svg PUBLIC "-//W3C//DTD SVG 20010904//EN"
 "http://www.w3.org/TR/2001/REC-SVG-20010904/DTD/svg10.dtd">
<svg version="1.0" xmlns="http://www.w3.org/2000/svg"
 width="1500.000000pt" height="1500.000000pt" viewBox="0 0 1500.000000 1500.000000"
 preserveAspectRatio="xMidYMid meet">

<g transform="translate(0.000000,1500.000000) scale(0.100000,-0.100000)"
fill="#000000" stroke="none">
<path d="M2520 7500 l0 -1450 390 0 390 0 0 1450 0 1450 -390 0 -390 0 0
-1450z"/>
<path d="M3480 7500 l0 -1450 395 0 395 0 0 1450 0 1450 -395 0 -395 0 0
-1450z"/>
<path d="M4450 7500 l0 -1450 395 0 395 0 0 1450 0 1450 -395 0 -395 0 0
-1450z"/>
<path d="M6863 8513 c9 -2 25 -2 35 0 9 3 1 5 -18 5 -19 0 -27 -2 -17 -5z"/>
<path d="M6718 8496 c-48 -17 -70 -32 -153 -102 -37 -32 -74 -72 -81 -90 -17
-40 -20 -398 -4 -456 12 -43 72 -100 126 -119 52 -18 254 -18 316 0 62 18 221
147 237 192 7 20 11 115 11 249 0 210 -1 218 -23 251 -32 47 -95 80 -164 84
l-58 4 57 -9 c75 -12 134 -43 159 -83 18 -30 19 -47 17 -265 l-3 -234 -37 -33
c-55 -51 -126 -68 -262 -64 -97 4 -118 8 -167 32 -90 43 -94 58 -94 312 0 194
2 213 21 245 26 45 86 78 161 89 50 7 52 9 18 9 -22 1 -57 -5 -77 -12z"/>
<path d="M5687 8444 c-37 -31 -70 -67 -73 -80 -4 -14 -4 -118 -2 -232 5 -203
6 -209 37 -292 44 -116 49 -120 136 -120 76 0 71 -3 177 80 l27 21 7 -36 c9
-51 35 -65 121 -65 l73 0 73 63 c55 48 76 75 90 112 10 26 16 50 13 52 -2 2
-9 -13 -16 -34 -25 -77 -33 -83 -111 -83 -39 0 -78 4 -88 10 -11 6 -26 40 -41
95 -30 111 -49 115 -79 16 -12 -38 -21 -74 -21 -79 0 -29 -33 -42 -104 -42
-88 0 -91 3 -132 115 -29 80 -29 81 -29 310 l0 230 100 0 100 0 3 -180 2 -179
29 61 c16 34 37 66 48 72 15 9 15 10 2 11 -9 0 -24 -9 -34 -20 -10 -11 -22
-20 -27 -20 -4 0 -8 55 -8 123 0 82 -4 127 -12 135 -8 8 -46 12 -103 12 l-91
0 -67 -56z"/>
<path d="M6138 8445 c-68 -56 -74 -67 -81 -137 -3 -33 0 -38 18 -38 33 0 59
-24 85 -81 l25 -53 5 175 5 174 98 3 98 3 -3 -248 c-2 -136 -7 -257 -11 -268
-4 -11 0 -5 8 13 13 27 15 74 13 270 l-3 237 -95 3 -95 3 -67 -56z"/>
<path d="M7317 8444 l-67 -57 0 -327 c0 -290 2 -329 16 -334 9 -3 125 -6 259
-6 l243 0 69 56 c37 31 71 63 75 72 8 21 10 289 2 320 -4 12 -10 22 -16 22 -5
0 -4 -8 2 -19 5 -11 10 -83 10 -161 0 -78 -5 -150 -10 -161 -10 -18 -24 -19
-258 -19 -180 0 -251 3 -260 12 -14 14 -17 614 -4 636 6 9 34 12 103 10 l94
-3 3 -237 2 -238 65 0 65 0 0 85 c0 97 -5 92 110 98 l65 3 -75 2 c-81 2 -85 1
-179 -76 l-41 -34 0 190 c0 105 -3 197 -6 206 -5 13 -24 16 -103 16 l-97 0
-67 -56z"/>
<path d="M8047 8444 l-67 -57 0 -328 0 -329 25 -6 c14 -3 111 -4 217 -2 222 5
228 6 333 92 73 59 115 109 115 136 -1 8 -7 1 -14 -15 -20 -45 -69 -82 -126
-94 -72 -15 -402 -15 -418 1 -14 14 -17 614 -3 636 6 10 54 12 222 10 194 -3
218 -5 254 -24 73 -38 79 -61 85 -294 l6 -205 2 195 c1 170 -1 200 -17 235
-42 92 -85 105 -345 105 l-202 0 -67 -56z"/>
<path d="M8820 8440 l-70 -61 0 -319 c0 -371 -11 -340 119 -340 l79 0 69 56
c37 31 70 61 72 67 2 8 -1 8 -10 0 -15 -15 -166 -18 -187 -5 -9 7 -12 79 -10
328 l3 319 212 0 c198 0 213 -1 240 -21 15 -11 36 -36 45 -55 10 -19 18 -28
18 -21 0 32 -34 75 -73 93 -37 16 -67 19 -239 19 l-197 0 -71 -60z"/>
<path d="M9597 8444 l-67 -57 0 -327 c0 -290 2 -329 16 -334 9 -3 116 -6 240
-6 l223 0 71 61 71 61 -3 81 c-3 70 -6 82 -21 83 -13 2 -13 1 -2 -3 13 -4 15
-19 13 -86 l-3 -82 -229 -3 c-160 -2 -233 1 -242 9 -11 9 -14 70 -14 314 0
167 3 310 6 319 5 14 36 16 245 16 l240 0 -3 -82 -3 -83 -137 -3 -138 -3 0
-34 0 -35 89 0 c49 0 96 -3 105 -6 12 -5 16 -21 16 -75 0 -85 -6 -89 -124 -89
l-86 0 0 -35 0 -35 61 0 c56 0 64 3 110 42 l51 42 -3 85 -3 84 37 31 38 32 -3
84 -3 85 -240 3 -240 2 -68 -56z"/>
<path d="M10395 8441 l-70 -59 -52 -138 c-68 -180 -72 -204 -73 -361 0 -162 0
-163 106 -163 42 0 85 5 97 11 44 24 137 111 137 130 0 10 7 19 15 19 12 0 15
-14 15 -68 0 -40 5 -73 12 -80 7 -7 44 -12 94 -12 81 0 82 0 141 44 101 76 95
61 91 253 -4 156 -6 173 -32 241 -16 40 -30 71 -32 69 -2 -1 10 -42 27 -89 29
-84 29 -92 27 -245 l-3 -158 -90 -3 c-108 -3 -115 2 -115 95 l0 63 -80 0 -79
0 -3 -77 -3 -78 -83 -3 c-53 -2 -89 1 -98 9 -11 9 -14 44 -14 156 0 158 6 185
92 403 l34 85 159 0 160 0 29 -72 c16 -40 31 -71 33 -69 5 5 -35 106 -53 134
-14 21 -20 22 -167 22 l-152 0 -70 -59z"/>
<path d="M11085 8473 c-16 -14 -47 -41 -67 -60 l-38 -34 0 -317 c0 -234 3
-321 12 -330 7 -7 44 -12 94 -12 l83 0 75 60 76 60 0 55 c0 45 3 55 17 55 9 0
31 11 49 25 l32 25 4 -130 c2 -103 6 -133 18 -140 8 -5 52 -10 97 -10 l82 0
75 61 76 61 0 317 c0 233 -3 320 -12 329 -8 8 -47 12 -108 12 l-96 0 -72 -60
c-40 -34 -72 -65 -72 -70 0 -24 -19 -6 -40 40 -40 86 -47 90 -158 90 -90 -1
-99 -3 -127 -27z m240 -5 c9 -13 34 -56 56 -95 22 -40 45 -73 52 -73 7 0 35
42 63 93 l51 92 104 0 104 0 3 -314 c2 -223 -1 -318 -9 -327 -15 -18 -170 -19
-187 -2 -8 8 -12 62 -12 178 l-1 165 -32 -60 c-28 -53 -36 -60 -66 -63 -59 -6
-76 4 -109 65 l-31 58 -1 -166 c0 -131 -3 -169 -14 -178 -9 -8 -45 -11 -98 -9
l-83 3 -3 315 c-1 173 0 320 3 327 3 9 32 13 99 13 87 0 96 -2 111 -22z"/>
<path d="M11206 8394 c-3 -9 -5 -120 -4 -247 l2 -232 6 240 c5 234 6 240 26
243 16 2 35 -19 94 -108 63 -95 76 -110 100 -110 24 0 37 15 100 110 59 89 78
110 94 108 20 -3 21 -9 26 -243 l6 -240 2 232 c1 127 -1 238 -4 247 -3 9 -17
16 -30 16 -19 0 -38 -21 -96 -110 -61 -91 -77 -110 -98 -110 -21 0 -37 19 -98
110 -58 89 -77 110 -96 110 -13 0 -27 -7 -30 -16z"/>
<path d="M11917 8443 l-68 -57 3 -85 3 -86 103 -3 c56 -1 102 -5 102 -8 0 -4
-22 -32 -48 -63 -27 -31 -78 -93 -115 -139 l-67 -83 0 -87 c0 -55 4 -92 12
-100 9 -9 79 -12 254 -12 l241 0 64 51 c35 27 70 57 77 66 12 17 17 129 6 157
-3 9 -11 16 -17 16 -7 0 -7 -4 1 -12 17 -17 16 -142 -2 -157 -9 -8 -86 -11
-257 -9 l-244 3 -3 89 c-3 103 -12 85 133 261 l107 130 -108 3 c-71 2 -111 7
-116 15 -10 16 -10 128 0 145 7 9 62 12 243 10 l234 -3 3 -97 3 -97 -102 -123
c-56 -68 -109 -131 -117 -140 -14 -17 -9 -18 99 -16 l114 2 -102 5 -102 6 50
60 c28 33 77 93 110 133 l59 73 0 89 c0 48 -3 95 -6 104 -5 14 -36 16 -243 16
l-237 0 -67 -57z"/>
<path d="M6773 8409 c-34 -10 -73 -52 -73 -78 0 -9 7 -2 15 14 23 45 51 58
150 65 l90 7 -75 1 c-41 0 -89 -4 -107 -9z"/>
<path d="M5842 8242 c-2 -127 2 -191 14 -242 8 -39 19 -72 24 -75 4 -3 1 16
-8 43 -10 33 -17 108 -22 247 l-6 200 -2 -173z"/>
<path d="M6289 8220 c-4 -107 -9 -208 -13 -225 -3 -16 1 -5 9 25 11 40 14 102
12 225 l-2 170 -6 -195z"/>
<path d="M6985 8396 c36 -16 54 -35 65 -73 8 -27 8 -27 9 -3 1 39 -51 91 -91
90 -7 -1 1 -7 17 -14z"/>
<path d="M7475 8163 l0 -248 168 -3 167 -2 -2 97 -2 98 -3 -92 -4 -93 -159 0
-160 0 -3 245 -3 245 1 -247z"/>
<path d="M8202 8163 l3 -248 113 -1 112 0 -110 3 -110 4 0 239 0 240 130 0
c147 0 194 -12 210 -55 14 -37 13 -338 -1 -369 -11 -23 -35 -37 -84 -50 -11
-3 -2 -3 20 -1 27 3 47 13 63 30 21 25 22 34 22 203 0 247 -5 252 -235 252
l-135 0 2 -247z"/>
<path d="M8982 8163 c1 -137 4 -200 5 -140 l4 107 132 0 133 0 17 29 c26 45
24 179 -4 215 -11 14 -24 26 -29 26 -5 0 2 -11 15 -25 22 -21 25 -33 25 -100
0 -73 -10 -112 -34 -127 -6 -4 -66 -8 -133 -8 l-123 0 0 130 0 129 118 4 117
3 -122 2 -123 2 2 -247z"/>
<path d="M9752 8163 l3 -248 153 0 152 -1 -150 3 -150 4 0 119 0 119 118 4
117 3 -117 2 -118 2 0 115 0 114 153 4 152 3 -158 2 -157 2 2 -247z"/>
<path d="M10528 8393 c-8 -10 -34 -66 -57 -125 -41 -106 -41 -107 -39 -230 2
-91 3 -103 5 -45 l4 77 179 0 c99 0 180 3 180 8 0 4 -81 6 -180 4 l-180 -3 0
41 c0 38 47 177 84 249 16 30 19 31 84 31 37 0 73 -4 79 -8 17 -11 93 -186
103 -237 6 -33 8 -35 9 -12 1 28 -65 200 -94 244 -14 21 -23 23 -89 23 -57 0
-76 -4 -88 -17z"/>
<path d="M12203 8403 l147 -4 0 -25 c0 -17 -45 -84 -145 -211 -147 -188 -169
-232 -129 -247 9 -3 84 -5 167 -4 l152 2 -160 6 -160 5 -3 25 c-2 19 33 69
143 210 122 155 145 190 143 215 l-3 30 -150 0 -150 1 148 -3z"/>
<path d="M9402 8322 c-2 -60 -25 -122 -44 -122 -7 0 2 -8 21 -18 65 -33 76
-58 79 -198 3 -87 0 -129 -8 -139 -14 -16 -164 -22 -187 -7 -8 5 -13 42 -15
102 l-3 95 -77 3 -78 3 2 -93 c1 -51 3 -76 5 -55 8 71 23 36 23 -52 0 -117 4
-121 115 -121 l84 0 58 46 c96 76 93 71 93 203 0 129 -18 189 -62 212 -12 6
-24 13 -26 14 -1 1 5 19 13 39 10 23 15 57 12 89 l-3 52 -2 -53z"/>
<path d="M6822 8314 c-21 -14 -22 -22 -22 -145 0 -72 5 -139 10 -150 9 -15 22
-19 70 -19 48 0 61 4 70 19 5 11 10 78 10 150 0 123 -1 131 -22 145 -12 9 -38
16 -58 16 -20 0 -46 -7 -58 -16z m8 -212 c0 -66 -3 -92 -10 -82 -13 20 -13
193 0 185 6 -3 10 -49 10 -103z"/>
<path d="M9090 8270 l0 -60 45 0 c40 0 47 3 56 27 11 30 4 74 -14 85 -7 4 -29
8 -49 8 l-38 0 0 -60z"/>
<path d="M8312 8163 c2 -148 2 -151 8 -58 4 74 7 93 13 73 5 -14 7 -58 5 -98
l-3 -71 60 3 60 3 3 139 c2 93 -1 143 -9 152 -8 9 -33 14 -75 14 l-64 0 2
-157z"/>
<path d="M10593 8308 c-6 -7 -20 -43 -31 -80 l-20 -68 70 0 70 0 -7 33 c-22
99 -56 147 -82 115z"/>
<path d="M6694 8147 l1 -169 37 -34 c25 -23 47 -34 65 -33 27 1 27 1 -4 9 -76
18 -87 44 -94 235 l-6 160 1 -168z"/>
<path d="M6033 8138 c-6 -7 -32 -56 -58 -108 -26 -52 -55 -100 -64 -107 -14
-12 -14 -12 2 -7 10 4 42 54 73 115 46 92 58 109 78 109 31 0 46 -19 99 -126
25 -50 52 -94 60 -97 20 -8 51 16 44 34 -4 11 -6 10 -6 -2 -1 -22 -28 -32 -42
-16 -6 7 -34 57 -63 112 -47 91 -54 100 -82 103 -17 2 -35 -3 -41 -10z"/>
<path d="M9296 8120 c39 -16 54 -50 56 -130 l2 -75 3 65 c2 35 2 75 -2 87 -7
28 -43 63 -64 62 -11 0 -9 -3 5 -9z"/>
<path d="M7051 8004 c-3 -56 -53 -83 -181 -97 -19 -3 -5 -3 32 -1 37 1 80 9
95 16 35 17 66 61 60 84 -4 17 -5 17 -6 -2z"/>
<path d="M5688 7588 c-35 -29 -66 -57 -70 -62 -4 -6 -8 -46 -8 -89 0 -74 1
-78 26 -87 14 -6 41 -10 60 -10 l34 0 -1 -102 0 -103 -60 -49 -59 -49 0 -76
c0 -47 5 -82 12 -89 9 -9 73 -12 225 -12 l212 0 71 61 71 61 -3 81 c-3 70 -6
82 -21 83 -13 2 -13 1 -2 -3 13 -4 15 -19 13 -86 l-3 -82 -220 0 -220 0 -3 81
c-3 91 -1 94 81 94 l37 0 0 150 0 150 -47 0 c-71 0 -74 5 -71 96 l3 79 220 0
220 0 3 -79 c3 -91 0 -96 -70 -96 l-48 0 2 -152 c2 -142 3 -145 6 -43 l4 110
59 48 59 49 0 83 c0 66 -3 84 -16 89 -9 3 -110 6 -224 6 l-209 0 -63 -52z"/>
<path d="M6340 7580 l-70 -61 0 -317 c0 -234 3 -321 12 -330 7 -7 44 -12 98
-12 l86 0 72 60 c54 46 72 67 72 86 0 14 4 22 10 19 6 -3 10 -37 10 -74 0 -39
5 -72 12 -79 7 -7 45 -12 98 -12 l87 0 69 58 69 58 3 318 c2 227 -1 323 -9
332 -8 10 -37 14 -99 14 l-88 0 -59 -50 -60 -49 -48 49 -49 50 -73 0 -72 0
-71 -60z m317 -62 l98 -112 5 110 5 109 95 0 95 0 0 -325 0 -325 -95 0 -95 0
-5 72 -5 72 -75 91 -75 92 -5 -164 -5 -163 -95 0 -95 0 -3 315 c-1 173 0 320
3 327 3 9 28 13 79 13 l74 0 99 -112z"/>
<path d="M6497 7543 c-4 -3 -6 -115 -5 -247 l2 -241 6 244 5 243 175 -197
c162 -183 175 -201 181 -244 3 -25 6 64 5 199 0 211 -1 219 -3 57 -2 -104 -7
-187 -12 -185 -4 2 -83 87 -175 191 -92 103 -168 187 -170 187 -1 0 -6 -3 -9
-7z"/>
<path d="M7485 7630 l160 -5 3 -79 c2 -57 -1 -82 -10 -87 -7 -5 -63 -9 -123
-9 -73 0 -115 -4 -123 -12 -8 -8 -12 -53 -12 -138 0 -128 6 -151 40 -149 9 0
6 4 -7 9 -21 9 -23 16 -23 95 l0 85 53 0 c61 0 89 13 163 76 l54 46 0 83 c0
66 -3 84 -16 89 -9 3 -84 5 -167 4 l-152 -2 160 -6z"/>
<path d="M7254 7612 c-58 -32 -173 -135 -191 -171 -15 -31 -18 -64 -18 -231 0
-171 2 -199 19 -230 53 -99 106 -120 313 -120 l142 0 71 61 71 61 -3 81 c-3
70 -6 82 -21 83 -13 2 -13 1 -2 -3 13 -4 15 -19 13 -86 l-3 -82 -140 -3 c-81
-2 -162 2 -193 8 -65 14 -118 57 -132 108 -13 47 -13 376 0 423 12 44 55 86
106 104 22 8 30 14 19 14 -11 0 -34 -8 -51 -17z"/>
<path d="M5888 7543 l72 -4 0 -239 0 -239 -72 -4 c-40 -1 -5 -3 77 -3 83 0
117 2 78 3 l-73 4 0 239 0 239 73 4 c39 1 5 3 -78 3 -82 0 -117 -2 -77 -3z"/>
<path d="M7418 7543 c28 -2 76 -2 105 0 28 2 5 3 -53 3 -58 0 -81 -1 -52 -3z"/>
<path d="M7312 7533 c-34 -13 -42 -60 -42 -233 0 -204 6 -221 74 -239 25 -6
87 -10 138 -9 l93 1 -115 7 c-118 6 -152 16 -170 50 -14 26 -13 355 1 381 6
12 25 27 42 34 22 10 26 14 12 14 -11 0 -26 -3 -33 -6z"/>
<path d="M6222 6618 c5 -15 28 -18 29 -3 0 6 -7 12 -17 13 -10 3 -15 -1 -12
-10z"/>
<path d="M6672 6618 c6 -18 28 -21 28 -4 0 9 -7 16 -16 16 -9 0 -14 -5 -12
-12z"/>
<path d="M6942 6618 c6 -18 28 -21 28 -4 0 9 -7 16 -16 16 -9 0 -14 -5 -12
-12z"/>
<path d="M6730 6540 c0 -63 3 -82 15 -87 9 -3 17 -4 18 -2 1 2 1 41 -1 87 -3
63 -7 82 -18 82 -11 0 -14 -17 -14 -80z"/>
<path d="M6840 6594 c0 -15 -4 -23 -11 -19 -17 11 -49 -26 -49 -57 0 -49 16
-68 55 -66 l35 1 0 84 c0 67 -3 83 -15 83 -9 0 -15 -10 -15 -26z m0 -85 c0
-28 -4 -39 -12 -37 -14 5 -23 51 -14 74 10 27 26 4 26 -37z"/>
<path d="M5610 6529 l0 -82 37 6 c46 8 63 29 63 77 0 51 -23 80 -66 80 l-34 0
0 -81z m58 49 c20 -20 15 -86 -8 -98 -19 -10 -20 -8 -20 50 0 60 6 70 28 48z"/>
<path d="M6450 6531 l0 -81 30 0 c38 0 70 31 63 59 -3 12 -9 21 -14 21 -5 0
-4 9 3 20 19 29 -1 54 -46 58 l-36 3 0 -80z m58 36 c2 -10 -3 -17 -12 -17 -10
0 -16 9 -16 21 0 24 23 21 28 -4z m2 -67 c0 -10 -7 -20 -15 -24 -11 -4 -15 2
-15 24 0 22 4 28 15 24 8 -4 15 -14 15 -24z"/>
<path d="M6279 6583 c-3 -29 2 -97 7 -115 6 -19 39 -24 49 -8 3 6 -1 10 -9 10
-20 0 -23 75 -3 84 10 5 10 7 0 12 -7 3 -13 12 -13 20 0 20 -30 17 -31 -3z"/>
<path d="M6999 6583 c-3 -29 2 -97 7 -115 6 -19 39 -24 49 -8 3 6 -1 10 -9 10
-20 0 -23 75 -3 84 10 5 10 7 0 12 -7 3 -13 12 -13 20 0 20 -30 17 -31 -3z"/>
<path d="M5758 6572 c-27 -3 -28 -5 -28 -63 0 -46 3 -59 15 -59 11 0 15 12 15
45 0 30 5 47 16 53 24 14 13 27 -18 24z"/>
<path d="M5822 6567 c-37 -44 -14 -121 34 -115 30 4 32 22 2 23 -12 0 -23 6
-25 13 -3 8 6 12 26 12 28 0 31 3 31 30 0 41 -45 65 -68 37z m42 -23 c9 -23 8
-24 -14 -24 -11 0 -20 2 -20 4 0 12 13 36 20 36 4 0 11 -7 14 -16z"/>
<path d="M5927 6573 c-13 -12 -7 -24 9 -21 28 5 26 -18 -1 -30 -21 -10 -26
-18 -23 -40 3 -24 7 -27 43 -27 l39 1 -3 49 c-1 28 -7 56 -13 63 -11 13 -40
16 -51 5z m33 -83 c0 -11 -4 -20 -10 -20 -5 0 -10 9 -10 20 0 11 5 20 10 20 6
0 10 -9 10 -20z"/>
<path d="M6043 6573 c-21 -4 -23 -10 -23 -65 0 -72 23 -78 28 -7 5 68 22 73
22 6 0 -43 4 -57 14 -57 11 0 16 14 18 50 4 67 22 69 26 3 4 -73 22 -67 22 6
0 64 -9 78 -39 61 -13 -7 -22 -7 -26 0 -3 5 -9 9 -13 9 -4 -1 -17 -4 -29 -6z"/>
<path d="M6230 6510 c0 -33 4 -60 10 -60 6 0 10 27 10 60 0 33 -4 60 -10 60
-6 0 -10 -27 -10 -60z"/>
<path d="M6560 6521 c0 -55 11 -68 58 -69 l32 -1 0 60 c0 45 -3 59 -14 59 -11
0 -16 -14 -18 -47 -4 -66 -28 -70 -28 -4 0 39 -4 51 -15 51 -11 0 -15 -12 -15
-49z"/>
<path d="M6672 6513 c4 -81 28 -85 28 -4 0 48 -3 61 -15 61 -13 0 -15 -11 -13
-57z"/>
<path d="M6942 6513 c4 -81 28 -85 28 -4 0 48 -3 61 -15 61 -13 0 -15 -11 -13
-57z"/>
<path d="M6350 6465 c0 -8 7 -15 15 -15 8 0 15 7 15 15 0 8 -7 15 -15 15 -8 0
-15 -7 -15 -15z"/>
<path d="M7070 6465 c0 -8 7 -15 15 -15 8 0 15 7 15 15 0 8 -7 15 -15 15 -8 0
-15 -7 -15 -15z"/>
</g>
</svg>
