<?xml version="1.0" standalone="no"?>
<!DOCTYPE svg PUBLIC "-//W3C//DTD SVG 20010904//EN"
 "http://www.w3.org/TR/2001/REC-SVG-20010904/DTD/svg10.dtd">
<svg version="1.0" xmlns="http://www.w3.org/2000/svg"
 width="128.000000pt" height="128.000000pt" viewBox="0 0 128.000000 128.000000"
 preserveAspectRatio="xMidYMid meet">

<g transform="translate(0.000000,128.000000) scale(0.100000,-0.100000)"
fill="#000000" stroke="none">
<path d="M188 874 c-23 -20 -46 -41 -50 -48 -4 -6 -8 -76 -8 -156 0 -132 3
-152 28 -225 l27 -80 64 -3 c59 -3 65 -1 106 32 l42 35 10 -32 c8 -31 10 -32
73 -35 l65 -3 55 52 c30 28 48 46 38 40 -9 -7 -42 -11 -75 -9 l-58 3 -19 63
c-11 34 -25 62 -31 62 -6 0 -20 -28 -31 -62 l-19 -63 -65 0 -65 0 -24 60 c-22
53 -25 79 -29 218 -3 115 -1 161 8 172 21 25 4 17 -42 -21z"/>
<path d="M508 874 c-53 -45 -58 -52 -58 -89 0 -24 -7 -33 -35 -47 l-34 -17 -4
87 c-2 70 -3 63 -4 -38 l-2 -125 22 45 c20 41 26 45 62 48 39 3 42 1 62 -40
l22 -43 0 116 c1 75 5 119 13 127 26 26 -2 10 -44 -24z"/>
<path d="M786 869 l-47 -41 3 -62 3 -61 38 -3 37 -3 0 -74 0 -73 -40 -32 c-39
-31 -40 -33 -40 -96 l0 -64 156 0 157 0 49 38 49 37 -160 3 -161 2 0 60 0 60
40 0 40 0 0 110 0 110 -40 0 -40 0 0 59 c0 38 4 61 13 64 7 3 8 6 1 6 -6 1
-32 -18 -58 -40z"/>
<path d="M1150 840 l-5 -55 -42 -3 -43 -3 0 -109 0 -109 43 -3 42 -3 6 -55 6
-55 1 50 c2 59 -9 75 -55 75 l-33 0 0 71 0 71 46 41 c44 41 45 44 42 92 l-4
50 -4 -55z"/>
<path d="M938 843 c28 -2 76 -2 105 0 28 2 5 3 -53 3 -58 0 -81 -1 -52 -3z"/>
<path d="M294 725 c0 -66 1 -92 3 -57 2 34 2 88 0 120 -2 31 -3 3 -3 -63z"/>
<path d="M614 715 c0 -71 1 -99 3 -62 2 37 2 96 0 130 -2 34 -3 4 -3 -68z"/>
<path d="M420 638 c-10 -22 -10 -22 4 -4 10 12 23 17 40 14 14 -3 23 -1 20 3
-11 18 -53 9 -64 -13z"/>
<path d="M377 555 c-15 -30 -25 -55 -22 -55 7 0 57 101 53 106 -2 2 -16 -21
-31 -51z"/>
<path d="M681 574 c0 -11 3 -14 6 -6 3 7 2 16 -1 19 -3 4 -6 -2 -5 -13z"/>
<path d="M301 564 c0 -11 3 -14 6 -6 3 7 2 16 -1 19 -3 4 -6 -2 -5 -13z"/>
<path d="M310 526 c0 -8 4 -17 9 -20 5 -4 7 3 4 14 -6 23 -13 26 -13 6z"/>
<path d="M935 499 c-35 -4 -18 -6 55 -6 102 -1 116 3 35 9 -22 2 -62 0 -90 -3z"/>
</g>
</svg>
